<?xml version="1.0" encoding="utf-8"?>
<svg id="very-easy" viewBox="-1 -1 51 51" width="48" height="48">
    <g>
        <path d="M24.5,49.1C11,49.1,0,38.1,0,24.6c0-6.6,2.5-12.7,7.1-17.4C11.8,2.6,17.9,0,24.5,0C38,0,49,11,49.1,24.5   c0,6.6-2.5,12.7-7.1,17.4C37.3,46.5,31.2,49,24.5,49.1L24.5,49.1z M24.5,3C18.7,3,13.3,5.3,9.3,9.4C5.2,13.4,3,18.8,3,24.6   c0,11.8,9.7,21.5,21.5,21.5v1.5l0.1-1.5c5.8,0,11.2-2.3,15.2-6.4c4.1-4.1,6.3-9.5,6.3-15.2C46,12.6,36.4,3,24.5,3z"></path>
    </g>
    <g>
        <path d="M47.1,16.8L44.9,16C41.9,9.5,35.8,2.1,24.8,2.2C14,2.2,8.2,8.4,5.3,13.7l-1-0.4c-0.7-0.3-1.5,0.1-1.8,0.8   c-0.3,0.7,0.1,1.5,0.8,1.8l18.2,7.2c0.2,0.1,0.3,0.1,0.5,0.1c0.4,0,0.7-0.1,1-0.4l6.2-6.6l6.8,3.2c0.4,0.2,0.9,0.2,1.3-0.1   c0.4-0.2,0.6-0.7,0.6-1.1l0-1.7l8.2,3c0.7,0.3,1.5-0.1,1.7-0.8C48.2,17.8,47.8,17.1,47.1,16.8z"></path>
    </g>
    <g>
        <path d="M12.4,31.9c-0.8,0-1.5-0.7-1.5-1.5c0-2.9,2.3-5.2,5.2-5.3c0,0,0,0,0,0c2.9,0,5.2,2.3,5.2,5.2   c0,0.8-0.7,1.5-1.5,1.5c0,0,0,0,0,0c-0.8,0-1.5-0.7-1.5-1.5c0-1.2-1-2.2-2.2-2.2c0,0,0,0,0,0c-1.2,0-2.2,1-2.2,2.2   C13.9,31.2,13.2,31.9,12.4,31.9C12.4,31.9,12.4,31.9,12.4,31.9z"></path>
    </g>
    <g>
        <path d="M30.1,31.8c-0.8,0-1.5-0.7-1.5-1.5c0-1.4,0.5-2.7,1.5-3.7c1-1,2.3-1.5,3.7-1.5c0,0,0,0,0,0   c1.4,0,2.7,0.5,3.7,1.5c1,1,1.5,2.3,1.5,3.7c0,0.8-0.7,1.5-1.5,1.5c0,0,0,0,0,0c-0.8,0-1.5-0.7-1.5-1.5c0-0.6-0.2-1.2-0.7-1.6   c-0.4-0.4-1-0.6-1.6-0.6c0,0,0,0,0,0c-0.6,0-1.2,0.2-1.6,0.7c-0.4,0.4-0.7,1-0.7,1.6C31.6,31.2,31,31.8,30.1,31.8   C30.1,31.8,30.1,31.8,30.1,31.8z"></path>
    </g>
    <g>
        <path d="M25,44c-3.8,0-6.9-3.1-6.9-6.9c0-0.8,0.7-1.5,1.5-1.5h10.8c0.8,0,1.5,0.7,1.5,1.5C31.9,40.9,28.8,44,25,44z    M21.4,38.6C22,40,23.4,41,25,41s3-1,3.6-2.4H21.4z"></path>
    </g>
</svg>
