<?xml version="1.0" encoding="utf-8"?>
<svg id="very-easy" viewBox="-1 -1 51 51" width="48" height="48">
    <g>
        <path d="M18.4,42c-0.4,0-0.8-0.1-1.1-0.4c-0.6-0.6-0.6-1.5,0-2.1c2-2,4.6-3.1,7.4-3.1c0,0,0,0,0,0   c2.8,0,5.4,1.1,7.4,3c0.6,0.6,0.6,1.5,0,2.1c-0.6,0.6-1.5,0.6-2.1,0c-1.4-1.4-3.3-2.2-5.3-2.2c0,0,0,0,0,0c-2,0-3.9,0.8-5.3,2.2   C19.2,41.8,18.8,42,18.4,42z"></path>
    </g>
    <g>
        <path d="M24.5,49.1C11,49.1,0,38.1,0,24.6c0-6.6,2.5-12.7,7.1-17.4C11.8,2.6,17.9,0,24.5,0C38,0,49,11,49.1,24.5   c0,6.6-2.5,12.7-7.1,17.4C37.3,46.5,31.2,49,24.5,49.1C24.6,49.1,24.5,49.1,24.5,49.1z M24.5,3C18.7,3,13.3,5.3,9.3,9.4   C5.2,13.4,3,18.8,3,24.6c0,11.8,9.7,21.5,21.5,21.5v1.5l0.1-1.5c5.8,0,11.2-2.3,15.2-6.4c4.1-4.1,6.3-9.5,6.3-15.2   C46,12.6,36.4,3,24.5,3z"></path>
    </g>
    <g>
        <path d="M47.1,16.8L44.9,16C41.9,9.5,35.8,2.1,24.8,2.2C14,2.2,8.2,8.4,5.3,13.7l-1-0.4c-0.7-0.3-1.5,0.1-1.8,0.8   c-0.3,0.7,0.1,1.5,0.8,1.8l18.2,7.2c0.2,0.1,0.3,0.1,0.5,0.1c0.4,0,0.7-0.1,1-0.4l6.2-6.6l6.8,3.2c0.4,0.2,0.9,0.2,1.3-0.1   c0.4-0.2,0.6-0.7,0.6-1.1l0-1.7l8.2,3c0.7,0.3,1.5-0.1,1.7-0.8C48.2,17.8,47.8,17.1,47.1,16.8z"></path>
    </g>
    <g>
        <path d="M35,31.8c-0.2,0-0.4,0-0.6-0.1l-5.8-2.4c-0.5-0.2-0.9-0.7-0.9-1.3c0-0.6,0.2-1.1,0.7-1.4l5.8-3.4   c0.7-0.4,1.6-0.2,2.1,0.5c0.4,0.7,0.2,1.6-0.5,2.1l-3.2,1.9l3,1.2c0.8,0.3,1.1,1.2,0.8,2C36.2,31.4,35.6,31.8,35,31.8z"></path>
    </g>
    <g>
        <path d="M14.2,31.8c-0.6,0-1.2-0.4-1.4-0.9c-0.3-0.8,0.1-1.6,0.8-2l3-1.2l-3.2-1.9c-0.7-0.4-1-1.3-0.5-2.1   c0.4-0.7,1.3-0.9,2.1-0.5l5.8,3.4c0.5,0.3,0.8,0.8,0.7,1.4c0,0.6-0.4,1.1-0.9,1.3l-5.8,2.4C14.5,31.8,14.3,31.8,14.2,31.8z"></path>
    </g>
</svg>